# xmcd
# 
# Track frame offsets:
#     150
#     11576
#     25708
#     38430
#     50203
#     61322
#     72180
#     84292
#     100593
#     115491
#     131078
#     143486
#     158907
#     171655
#     185317
#     199919
#     213416
#     227931
# 
# Disc length: 3279
# 
# Revision: 0
# Processed by: cddbd v1.5.2PL0 Copyright (c) Steve Scherf et al.
# Submitted via: fre:ac v1.0.27
# 
DISCID=f80ccd12
DTITLE=David McWilliams - The Day of David McWilliams...Plus
DYEAR=2003
DGENRE=Folk/Rock
TTITLE0=Days of Pearly Spencer
TTITLE1=Can I Get There by Candlelight
TTITLE2=3 O'Clock Flamingo Street
TTITLE3=Turn Homeward Stranger
TTITLE4=Poverty Street
TTITLE5=September Winds
TTITLE6=Reflections
TTITLE7=Oh Mama Are You My Friend
TTITLE8=The Stranger
TTITLE9=God and my Country
TTITLE10=Leaves that Fall
TTITLE11=I'll Be Home
TTITLE12=There Is No Lock Upon My Door
TTITLE13=Harlem Lady
TTITLE14=This Side of Heaven
TTITLE15=Follow Me
TTITLE16=I Love Suzie in the Summer
TTITLE17=Redundancy Blues
EXTD=
EXTT0=
EXTT1=
EXTT2=
EXTT3=
EXTT4=
EXTT5=
EXTT6=
EXTT7=Single
EXTT8=Single
EXTT9=
EXTT10=
EXTT11=
EXTT12=
EXTT13=
EXTT14=
EXTT15=B side of 'The Stranger' ingle
EXTT16=B side of 'Oh Mama Are You My Friend' single
EXTT17=
PLAYORDER=
